<mxfile host="app.diagrams.net" agent="Mozilla/5.0 (Windows NT 10.0; Win64; x64) AppleWebKit/537.36 (KHTML, like Gecko) Chrome/137.0.0.0 Safari/537.36" version="27.1.6">
  <diagram name="Pagina-1" id="nKQ8IWOeLe__zJpFMWA1">
    <mxGraphModel dx="1426" dy="785" grid="1" gridSize="10" guides="1" tooltips="1" connect="1" arrows="1" fold="1" page="1" pageScale="1" pageWidth="827" pageHeight="1169" math="0" shadow="0">
      <root>
        <mxCell id="0" />
        <mxCell id="1" parent="0" />
        <mxCell id="KUeEee9QzAsEJCoc757X-1" value="" style="rounded=0;whiteSpace=wrap;html=1;" vertex="1" parent="1">
          <mxGeometry x="40" y="40" width="740" height="520" as="geometry" />
        </mxCell>
        <mxCell id="KUeEee9QzAsEJCoc757X-2" value="" style="rounded=0;whiteSpace=wrap;html=1;" vertex="1" parent="1">
          <mxGeometry x="80" y="100" width="470" height="280" as="geometry" />
        </mxCell>
        <mxCell id="KUeEee9QzAsEJCoc757X-3" value="" style="rounded=0;whiteSpace=wrap;html=1;" vertex="1" parent="1">
          <mxGeometry x="100" y="140" width="290" height="220" as="geometry" />
        </mxCell>
        <mxCell id="KUeEee9QzAsEJCoc757X-4" value="&lt;div&gt;ESP32CAM&lt;/div&gt;" style="text;html=1;align=center;verticalAlign=middle;resizable=0;points=[];autosize=1;strokeColor=none;fillColor=none;" vertex="1" parent="1">
          <mxGeometry x="460" y="100" width="90" height="30" as="geometry" />
        </mxCell>
        <mxCell id="KUeEee9QzAsEJCoc757X-5" value="Flight controller" style="text;html=1;align=center;verticalAlign=middle;resizable=0;points=[];autosize=1;strokeColor=none;fillColor=none;" vertex="1" parent="1">
          <mxGeometry x="280" y="140" width="110" height="30" as="geometry" />
        </mxCell>
        <mxCell id="KUeEee9QzAsEJCoc757X-6" style="edgeStyle=orthogonalEdgeStyle;rounded=0;orthogonalLoop=1;jettySize=auto;html=1;exitX=0.5;exitY=1;exitDx=0;exitDy=0;entryX=1;entryY=0.5;entryDx=0;entryDy=0;" edge="1" parent="1" source="KUeEee9QzAsEJCoc757X-7" target="KUeEee9QzAsEJCoc757X-9">
          <mxGeometry relative="1" as="geometry" />
        </mxCell>
        <mxCell id="KUeEee9QzAsEJCoc757X-7" value="PID controller" style="rounded=0;whiteSpace=wrap;html=1;" vertex="1" parent="1">
          <mxGeometry x="250" y="230" width="120" height="60" as="geometry" />
        </mxCell>
        <mxCell id="KUeEee9QzAsEJCoc757X-8" style="edgeStyle=orthogonalEdgeStyle;rounded=0;orthogonalLoop=1;jettySize=auto;html=1;exitX=0.5;exitY=1;exitDx=0;exitDy=0;entryX=0.5;entryY=0;entryDx=0;entryDy=0;" edge="1" parent="1" source="KUeEee9QzAsEJCoc757X-9" target="KUeEee9QzAsEJCoc757X-18">
          <mxGeometry relative="1" as="geometry" />
        </mxCell>
        <mxCell id="KUeEee9QzAsEJCoc757X-9" value="Motor control" style="rounded=0;whiteSpace=wrap;html=1;" vertex="1" parent="1">
          <mxGeometry x="120" y="280" width="120" height="60" as="geometry" />
        </mxCell>
        <mxCell id="KUeEee9QzAsEJCoc757X-10" value="Drone" style="text;html=1;align=center;verticalAlign=middle;resizable=0;points=[];autosize=1;strokeColor=none;fillColor=none;" vertex="1" parent="1">
          <mxGeometry x="720" y="40" width="60" height="30" as="geometry" />
        </mxCell>
        <mxCell id="KUeEee9QzAsEJCoc757X-11" style="edgeStyle=orthogonalEdgeStyle;rounded=0;orthogonalLoop=1;jettySize=auto;html=1;exitX=0;exitY=0.5;exitDx=0;exitDy=0;entryX=1;entryY=0.5;entryDx=0;entryDy=0;" edge="1" parent="1" source="KUeEee9QzAsEJCoc757X-12" target="KUeEee9QzAsEJCoc757X-7">
          <mxGeometry relative="1" as="geometry" />
        </mxCell>
        <mxCell id="KUeEee9QzAsEJCoc757X-12" value="Webserver (user control)" style="rounded=0;whiteSpace=wrap;html=1;" vertex="1" parent="1">
          <mxGeometry x="410" y="230" width="120" height="60" as="geometry" />
        </mxCell>
        <mxCell id="KUeEee9QzAsEJCoc757X-13" value="" style="rounded=0;whiteSpace=wrap;html=1;" vertex="1" parent="1">
          <mxGeometry x="570" y="100" width="160" height="300" as="geometry" />
        </mxCell>
        <mxCell id="KUeEee9QzAsEJCoc757X-14" value="Power" style="text;html=1;align=center;verticalAlign=middle;resizable=0;points=[];autosize=1;strokeColor=none;fillColor=none;" vertex="1" parent="1">
          <mxGeometry x="670" y="100" width="60" height="30" as="geometry" />
        </mxCell>
        <mxCell id="KUeEee9QzAsEJCoc757X-15" style="edgeStyle=orthogonalEdgeStyle;rounded=0;orthogonalLoop=1;jettySize=auto;html=1;exitX=0.5;exitY=1;exitDx=0;exitDy=0;entryX=0.5;entryY=0;entryDx=0;entryDy=0;" edge="1" parent="1" source="KUeEee9QzAsEJCoc757X-16" target="KUeEee9QzAsEJCoc757X-17">
          <mxGeometry relative="1" as="geometry" />
        </mxCell>
        <mxCell id="KUeEee9QzAsEJCoc757X-16" value="LiPo battery" style="rounded=0;whiteSpace=wrap;html=1;" vertex="1" parent="1">
          <mxGeometry x="590" y="140" width="120" height="60" as="geometry" />
        </mxCell>
        <mxCell id="KUeEee9QzAsEJCoc757X-17" value="Boost converter" style="rounded=0;whiteSpace=wrap;html=1;" vertex="1" parent="1">
          <mxGeometry x="590" y="230" width="120" height="60" as="geometry" />
        </mxCell>
        <mxCell id="KUeEee9QzAsEJCoc757X-18" value="" style="rounded=0;whiteSpace=wrap;html=1;" vertex="1" parent="1">
          <mxGeometry x="100" y="420" width="160" height="120" as="geometry" />
        </mxCell>
        <mxCell id="KUeEee9QzAsEJCoc757X-19" style="edgeStyle=orthogonalEdgeStyle;rounded=0;orthogonalLoop=1;jettySize=auto;html=1;exitX=0.5;exitY=1;exitDx=0;exitDy=0;entryX=1;entryY=0.5;entryDx=0;entryDy=0;" edge="1" parent="1" source="KUeEee9QzAsEJCoc757X-20" target="KUeEee9QzAsEJCoc757X-18">
          <mxGeometry relative="1" as="geometry" />
        </mxCell>
        <mxCell id="KUeEee9QzAsEJCoc757X-20" value="LiPo battery" style="rounded=0;whiteSpace=wrap;html=1;" vertex="1" parent="1">
          <mxGeometry x="590" y="320" width="120" height="60" as="geometry" />
        </mxCell>
        <mxCell id="KUeEee9QzAsEJCoc757X-21" value="8520 brushed DC motors" style="rounded=0;whiteSpace=wrap;html=1;" vertex="1" parent="1">
          <mxGeometry x="120" y="460" width="120" height="60" as="geometry" />
        </mxCell>
        <mxCell id="KUeEee9QzAsEJCoc757X-22" value="&lt;div&gt;Motor drivers&lt;/div&gt;" style="text;html=1;align=center;verticalAlign=middle;resizable=0;points=[];autosize=1;strokeColor=none;fillColor=none;" vertex="1" parent="1">
          <mxGeometry x="170" y="420" width="90" height="30" as="geometry" />
        </mxCell>
        <mxCell id="KUeEee9QzAsEJCoc757X-23" value="" style="rounded=0;whiteSpace=wrap;html=1;" vertex="1" parent="1">
          <mxGeometry x="900" y="40" width="280" height="420" as="geometry" />
        </mxCell>
        <mxCell id="KUeEee9QzAsEJCoc757X-24" value="Telemetry controller" style="text;html=1;align=center;verticalAlign=middle;resizable=0;points=[];autosize=1;strokeColor=none;fillColor=none;" vertex="1" parent="1">
          <mxGeometry x="1050" y="40" width="130" height="30" as="geometry" />
        </mxCell>
        <mxCell id="KUeEee9QzAsEJCoc757X-25" value="" style="rounded=0;whiteSpace=wrap;html=1;" vertex="1" parent="1">
          <mxGeometry x="940" y="80" width="200" height="340" as="geometry" />
        </mxCell>
        <mxCell id="KUeEee9QzAsEJCoc757X-26" value="" style="rounded=0;whiteSpace=wrap;html=1;" vertex="1" parent="1">
          <mxGeometry x="960" y="120" width="160" height="120" as="geometry" />
        </mxCell>
        <mxCell id="KUeEee9QzAsEJCoc757X-27" value="16x2 LCD" style="rounded=0;whiteSpace=wrap;html=1;" vertex="1" parent="1">
          <mxGeometry x="980" y="160" width="120" height="60" as="geometry" />
        </mxCell>
        <mxCell id="KUeEee9QzAsEJCoc757X-28" style="edgeStyle=orthogonalEdgeStyle;rounded=0;orthogonalLoop=1;jettySize=auto;html=1;exitX=0.5;exitY=0;exitDx=0;exitDy=0;entryX=0.5;entryY=1;entryDx=0;entryDy=0;" edge="1" parent="1" source="KUeEee9QzAsEJCoc757X-30" target="KUeEee9QzAsEJCoc757X-27">
          <mxGeometry relative="1" as="geometry" />
        </mxCell>
        <mxCell id="KUeEee9QzAsEJCoc757X-29" style="edgeStyle=orthogonalEdgeStyle;rounded=0;orthogonalLoop=1;jettySize=auto;html=1;exitX=0;exitY=0.75;exitDx=0;exitDy=0;entryX=0.75;entryY=1;entryDx=0;entryDy=0;" edge="1" parent="1" source="KUeEee9QzAsEJCoc757X-30" target="KUeEee9QzAsEJCoc757X-3">
          <mxGeometry relative="1" as="geometry">
            <Array as="points">
              <mxPoint x="920" y="370" />
              <mxPoint x="920" y="450" />
              <mxPoint x="318" y="450" />
            </Array>
          </mxGeometry>
        </mxCell>
        <mxCell id="KUeEee9QzAsEJCoc757X-30" value="" style="rounded=0;whiteSpace=wrap;html=1;" vertex="1" parent="1">
          <mxGeometry x="960" y="280" width="160" height="120" as="geometry" />
        </mxCell>
        <mxCell id="KUeEee9QzAsEJCoc757X-31" value="Button" style="rounded=0;whiteSpace=wrap;html=1;" vertex="1" parent="1">
          <mxGeometry x="980" y="320" width="120" height="60" as="geometry" />
        </mxCell>
        <mxCell id="KUeEee9QzAsEJCoc757X-32" value="ESP32" style="text;html=1;align=center;verticalAlign=middle;resizable=0;points=[];autosize=1;strokeColor=none;fillColor=none;" vertex="1" parent="1">
          <mxGeometry x="1080" y="80" width="60" height="30" as="geometry" />
        </mxCell>
        <mxCell id="KUeEee9QzAsEJCoc757X-33" value="Telemetry" style="text;html=1;align=center;verticalAlign=middle;resizable=0;points=[];autosize=1;strokeColor=none;fillColor=none;" vertex="1" parent="1">
          <mxGeometry x="1040" y="120" width="80" height="30" as="geometry" />
        </mxCell>
        <mxCell id="KUeEee9QzAsEJCoc757X-34" value="Emergency stop" style="text;html=1;align=center;verticalAlign=middle;resizable=0;points=[];autosize=1;strokeColor=none;fillColor=none;" vertex="1" parent="1">
          <mxGeometry x="1010" y="280" width="110" height="30" as="geometry" />
        </mxCell>
        <mxCell id="KUeEee9QzAsEJCoc757X-35" value="UDP/1234" style="text;html=1;align=center;verticalAlign=middle;resizable=0;points=[];autosize=1;strokeColor=none;fillColor=none;" vertex="1" parent="1">
          <mxGeometry x="800" y="420" width="80" height="30" as="geometry" />
        </mxCell>
        <mxCell id="KUeEee9QzAsEJCoc757X-36" style="edgeStyle=orthogonalEdgeStyle;rounded=0;orthogonalLoop=1;jettySize=auto;html=1;exitX=0;exitY=0.5;exitDx=0;exitDy=0;" edge="1" parent="1" source="KUeEee9QzAsEJCoc757X-17">
          <mxGeometry relative="1" as="geometry">
            <mxPoint x="551" y="260" as="targetPoint" />
          </mxGeometry>
        </mxCell>
        <mxCell id="KUeEee9QzAsEJCoc757X-37" value="UDP/1234" style="text;html=1;align=center;verticalAlign=middle;resizable=0;points=[];autosize=1;strokeColor=none;fillColor=none;" vertex="1" parent="1">
          <mxGeometry x="800" y="50" width="80" height="30" as="geometry" />
        </mxCell>
        <mxCell id="KUeEee9QzAsEJCoc757X-38" style="edgeStyle=orthogonalEdgeStyle;rounded=0;orthogonalLoop=1;jettySize=auto;html=1;exitX=1;exitY=0.5;exitDx=0;exitDy=0;entryX=0.5;entryY=0;entryDx=0;entryDy=0;" edge="1" parent="1" source="KUeEee9QzAsEJCoc757X-39" target="KUeEee9QzAsEJCoc757X-7">
          <mxGeometry relative="1" as="geometry" />
        </mxCell>
        <mxCell id="KUeEee9QzAsEJCoc757X-39" value="MPU6050" style="rounded=0;whiteSpace=wrap;html=1;" vertex="1" parent="1">
          <mxGeometry x="120" y="180" width="120" height="60" as="geometry" />
        </mxCell>
        <mxCell id="KUeEee9QzAsEJCoc757X-40" style="edgeStyle=orthogonalEdgeStyle;rounded=0;orthogonalLoop=1;jettySize=auto;html=1;exitX=0.75;exitY=0;exitDx=0;exitDy=0;entryX=0;entryY=0.25;entryDx=0;entryDy=0;" edge="1" parent="1" source="KUeEee9QzAsEJCoc757X-3" target="KUeEee9QzAsEJCoc757X-26">
          <mxGeometry relative="1" as="geometry">
            <Array as="points">
              <mxPoint x="318" y="80" />
              <mxPoint x="920" y="80" />
              <mxPoint x="920" y="150" />
            </Array>
          </mxGeometry>
        </mxCell>
      </root>
    </mxGraphModel>
  </diagram>
</mxfile>
